<svg width="1352" height="300" viewBox="0 0 1352 300" fill="none" xmlns="http://www.w3.org/2000/svg">
<rect x="296.5" y="296.5" width="293" height="293" rx="38.5" transform="rotate(-180 296.5 296.5)" fill="black" stroke="black" stroke-width="7"/>
<circle cx="224" cy="223" r="18.5" transform="rotate(-180 224 223)" fill="white" stroke="white"/>
<circle cx="79" cy="77" r="18.5" transform="rotate(-180 79 77)" fill="white" stroke="white"/>
<line x1="207" y1="222.5" x2="76" y2="222.5" stroke="white" stroke-width="7"/>
<line x1="79.5" y1="226" x2="79.5" y2="95" stroke="white" stroke-width="7"/>
<path d="M475.012 211H434.055L386.594 132.777V211H351.789V79.1641H392.746L440.207 157.65V79.1641H475.012V211ZM610.715 79.1641V151.498C610.715 164.389 608.342 175.492 603.596 184.809C598.908 194.066 592.141 201.186 583.293 206.166C574.504 211.146 563.957 213.637 551.652 213.637C539.406 213.637 528.859 211.146 520.012 206.166C511.164 201.186 504.367 194.066 499.621 184.809C494.934 175.492 492.59 164.389 492.59 151.498V79.1641H527.395V146.752C527.395 155.131 528.244 162.016 529.943 167.406C531.701 172.797 534.367 176.811 537.941 179.447C541.516 182.025 546.086 183.314 551.652 183.314C557.219 183.314 561.789 182.025 565.363 179.447C568.938 176.811 571.574 172.797 573.273 167.406C575.031 162.016 575.91 155.131 575.91 146.752V79.1641H610.715ZM717.941 211H628.293V79.1641H663.098V180.678H717.941V211ZM818.137 211H728.488V79.1641H763.293V180.678H818.137V211ZM918.596 211H831.32V191.049C841.398 181.732 849.748 173.734 856.369 167.055C863.049 160.375 868.293 154.604 872.102 149.74C875.969 144.818 878.693 140.424 880.275 136.557C881.916 132.631 882.736 128.822 882.736 125.131C882.736 121.322 882.062 118.041 880.715 115.287C879.367 112.533 877.463 110.424 875.002 108.959C872.6 107.436 869.787 106.674 866.564 106.674C862.756 106.674 859.035 107.758 855.402 109.926C851.77 112.035 848.605 114.994 845.91 118.803L828.684 96.3906C834.25 90.0625 841.018 85.1699 848.986 81.7129C856.955 78.2559 865.1 76.5273 873.42 76.5273C881.447 76.5273 888.859 78.1973 895.656 81.5371C902.512 84.877 907.99 89.6816 912.092 95.9512C916.252 102.221 918.332 109.779 918.332 118.627C918.332 124.252 917.424 129.789 915.607 135.238C913.85 140.688 911.301 146.02 907.961 151.234C904.621 156.391 900.607 161.459 895.92 166.439C891.232 171.361 885.959 176.107 880.1 180.678H918.596V211ZM931.867 197.729L949.533 169.34C951.408 173.441 954.455 176.811 958.674 179.447C962.893 182.025 967.375 183.314 972.121 183.314C975.812 183.314 979.094 182.523 981.965 180.941C984.836 179.301 987.092 177.045 988.732 174.174C990.373 171.303 991.193 168.051 991.193 164.418C991.193 160.727 990.344 157.445 988.645 154.574C987.004 151.703 984.719 149.447 981.789 147.807C978.859 146.166 975.52 145.346 971.77 145.346C968.605 145.346 965.617 145.99 962.805 147.279C960.051 148.51 957.561 150.326 955.334 152.729L938.723 143.324L944.611 79.1641H1017.74V109.486H976.34L973.967 130.844C977.248 130.141 980.646 129.789 984.162 129.789C992.248 129.789 999.514 131.518 1005.96 134.975C1012.4 138.373 1017.47 143.061 1021.16 149.037C1024.91 155.014 1026.79 161.811 1026.79 169.428C1026.79 177.748 1024.53 185.248 1020.02 191.928C1015.57 198.607 1009.47 203.91 1001.74 207.836C994.064 211.703 985.334 213.637 975.549 213.637C967.58 213.637 959.758 212.26 952.082 209.506C944.465 206.693 937.727 202.768 931.867 197.729ZM1086.29 213.637C1076.33 213.637 1067.69 211.439 1060.36 207.045C1053.04 202.65 1047.36 196.469 1043.31 188.5C1039.33 180.473 1037.34 171.068 1037.34 160.287C1037.34 151.791 1038.62 143.676 1041.2 135.941C1043.78 128.148 1047.59 120.824 1052.63 113.969C1057.73 107.113 1063.97 100.785 1071.35 94.9844C1078.79 89.125 1087.35 83.8516 1097.01 79.1641L1112.92 101.225C1106.48 104.506 1100.53 108.139 1095.08 112.123C1089.69 116.107 1084.91 120.326 1080.75 124.779C1076.59 129.174 1073.14 133.744 1070.38 138.49C1073.49 135.502 1077.15 133.217 1081.37 131.635C1085.65 130.053 1090.39 129.262 1095.61 129.262C1103.34 129.262 1110.17 130.961 1116.09 134.359C1122 137.699 1126.63 142.328 1129.97 148.246C1133.31 154.164 1134.98 160.99 1134.98 168.725C1134.98 177.455 1132.87 185.219 1128.65 192.016C1124.49 198.754 1118.75 204.057 1111.43 207.924C1104.1 211.732 1095.72 213.637 1086.29 213.637ZM1086.03 183.314C1088.55 183.314 1090.8 182.553 1092.79 181.029C1094.79 179.506 1096.37 177.455 1097.54 174.877C1098.77 172.299 1099.39 169.457 1099.39 166.352C1099.39 163.246 1098.8 160.492 1097.63 158.09C1096.52 155.688 1094.96 153.783 1092.97 152.377C1091.04 150.971 1088.81 150.268 1086.29 150.268C1083.77 150.268 1081.49 151 1079.44 152.465C1077.44 153.871 1075.86 155.834 1074.69 158.354C1073.52 160.814 1072.93 163.627 1072.93 166.791C1072.93 169.896 1073.52 172.709 1074.69 175.229C1075.86 177.689 1077.44 179.652 1079.44 181.117C1081.43 182.582 1083.62 183.314 1086.03 183.314Z" fill="black"/>
</svg>
